<?xml version="1.0" encoding="utf-8"?>

<!DOCTYPE svg PUBLIC "-//W3C//DTD SVG 1.1//EN" "http://www.w3.org/Graphics/SVG/1.1/DTD/svg11.dtd">
<svg version="1.1" id="Layer_1" xmlns="http://www.w3.org/2000/svg" xmlns:xlink="http://www.w3.org/1999/xlink" x="0px" y="0px"
	 width="100px" height="100px" viewBox="0 0 100 100" enable-background="new 0 0 100 100" xml:space="preserve">
<g>
	<path d="M6,18.5c0,1.104,0.896,2,2,2h15.401l3.532,14.183c-0.051,0.361-0.086,0.822-0.086,1.195c0,0.121,0.011,0.29,0.033,0.409
		l4.914,26.758c0.016,0.089,0.038,0.188,0.066,0.274c0.643,1.957,2.037,6.191,5.856,7.287c-1.088,1.469-1.74,3.281-1.74,5.244
		c0,4.869,3.962,8.832,8.831,8.832s8.831-4.151,8.831-9.021c0-1.843-0.569-3.161-1.538-5.161h18.414
		c-0.969,2-1.538,3.319-1.538,5.162c0,4.869,3.962,8.926,8.831,8.926s8.831-3.914,8.831-8.783c0-1.978-0.661-3.774-1.764-5.248
		c2.026-0.626,4.455-2.437,5.852-7.312c0.024-0.085,0.043-0.166,0.056-0.254l3.932-26.73c0.015-0.097,0.021-0.382,0.021-0.48
		c0-4.386-3.616-8.281-7.897-8.281H34.745c-1.868,0-3.61,0.896-4.979,2.058l-2.867-11.452c-0.225-0.889-1.023-1.606-1.939-1.606H8
		C6.896,16.5,6,17.396,6,18.5z M44.809,80.684c-2.664,0-4.831-2.167-4.831-4.831s2.167-4.831,4.831-4.831s4.831,2.167,4.831,4.831
		S47.473,80.684,44.809,80.684z M77.809,80.684c-2.664,0-4.831-2.167-4.831-4.831s2.167-4.831,4.831-4.831s4.831,2.167,4.831,4.831
		S80.473,80.684,77.809,80.684z M34.745,31.5h52.094c2.07,0,3.826,1.99,3.896,4.15l-3.889,26.344
		c-0.627,2.129-1.813,4.506-3.938,4.506H39.659c-1.479,0-2.66-0.595-3.955-4.481l-4.854-26.305c0.009-0.207,0.045-0.36,0.083-0.558
		c0.013-0.064,0.022-0.293,0.029-0.359C31.388,33.025,32.947,31.5,34.745,31.5z"/>
</g>
</svg>
