<?xml version="1.0" encoding="utf-8"?>

<!DOCTYPE svg PUBLIC "-//W3C//DTD SVG 1.1//EN" "http://www.w3.org/Graphics/SVG/1.1/DTD/svg11.dtd">
<svg version="1.1" id="Layer_1" xmlns="http://www.w3.org/2000/svg" xmlns:xlink="http://www.w3.org/1999/xlink" x="0px" y="0px"
	 width="100px" height="100px" viewBox="0 0 100 100" enable-background="new 0 0 100 100" xml:space="preserve">
<g>
	<path d="M71.359,37.935c-0.781-0.781-2.047-0.781-2.828,0s-0.781,1.856,0,2.638L76.65,48.5H51.5V24.229l8.547,8.298
		c0.39,0.391,1.027,0.586,1.539,0.586s1.086-0.195,1.477-0.586c0.781-0.78,0.812-2.047,0.031-2.828L51.436,18.023
		c-0.375-0.375-0.875-0.586-1.406-0.586c-0.53,0-1.035,0.211-1.41,0.586L36.946,29.698c-0.781,0.781-0.78,2.047,0.001,2.828
		s1.798,0.781,2.579,0l7.975-8.224V48.5H23.422l8.118-7.928c0.781-0.781,0.781-1.952,0-2.733s-2.048-0.734-2.828,0.047
		L17.037,49.585c-0.375,0.375-0.586,0.896-0.586,1.426s0.211,1.045,0.586,1.42l11.675,11.676c0.391,0.391,0.902,0.587,1.414,0.587
		s1.024-0.194,1.415-0.585c0.781-0.781,0.781-2.237,0-3.018L23.138,52.5H47.5v25.242l-7.974-8.224c-0.781-0.781-1.923-0.781-2.703,0
		c-0.781,0.781-0.719,2.047,0.062,2.828l11.707,11.675c0.375,0.375,0.899,0.586,1.43,0.586c0.531,0,1.047-0.211,1.422-0.586
		l11.678-11.675c0.781-0.781,0.783-2.048,0.002-2.828c-0.781-0.781-2.298-0.781-3.077,0L51.5,77.816V52.5h25.435l-8.403,8.592
		c-0.781,0.78-0.781,2.143,0,2.924c0.391,0.391,0.902,0.633,1.414,0.633s1.023-0.171,1.414-0.562l11.676-11.661
		c0.375-0.375,0.586-0.878,0.586-1.408s-0.211-1.036-0.586-1.411L71.359,37.935z"/>
</g>
</svg>
