<?xml version="1.0" ?><!DOCTYPE svg  PUBLIC '-//W3C//DTD SVG 1.1//EN'  'http://www.w3.org/Graphics/SVG/1.1/DTD/svg11.dtd'><svg width="512px" height="512px" viewBox="0 0 512 512" enable-background="new 0 0 512 512" id="Layer_1" version="1.1" xml:space="preserve" xmlns="http://www.w3.org/2000/svg" xmlns:xlink="http://www.w3.org/1999/xlink"><g><g><path d="M403.571,175.563H108.429c-5.523,0-10-4.477-10-10v-37.125c0-5.523,4.477-10,10-10h295.142c5.523,0,10,4.477,10,10v37.125    C413.571,171.085,409.094,175.563,403.571,175.563z M118.429,155.563h275.142v-17.125H118.429V155.563z"/></g><g><path d="M320.94,393.563c-5.523,0-10-4.477-10-10v-95c0-0.76,0.085-1.501,0.246-2.213c-0.957-23.825-17.293-44.612-40.385-51.01    c-9.57-2.669-20.069-2.662-29.594-0.004c-23.178,6.432-39.544,27.337-40.401,51.253c0.128,0.638,0.195,1.298,0.195,1.974v95    c0,5.523-4.477,10-10,10s-10-4.477-10-10v-92.858c-0.15-0.69-0.23-1.407-0.23-2.142c0-33.686,22.648-63.497,55.076-72.496    c13-3.625,27.273-3.632,40.31,0.003c32.42,8.982,55.074,38.793,55.074,72.492c0,0.828-0.101,1.632-0.29,2.401v92.599    C330.94,389.085,326.463,393.563,320.94,393.563z"/></g><g><path d="M371.5,393.563h-50.56c-5.523,0-10-4.477-10-10v-95c0-0.76,0.085-1.501,0.246-2.213    c-0.957-23.825-17.293-44.612-40.385-51.01c-9.57-2.669-20.069-2.662-29.594-0.004c-23.178,6.432-39.544,27.337-40.401,51.254    c0.128,0.638,0.195,1.298,0.195,1.973v95c0,5.523-4.477,10-10,10h-50.5c-5.523,0-10-4.477-10-10v-218c0-5.523,4.477-10,10-10h231    c5.523,0,10,4.477,10,10v218C381.5,389.085,377.023,393.563,371.5,393.563z M330.94,373.563h30.56v-198h-211v198H181v-82.858    c-0.15-0.69-0.23-1.407-0.23-2.142c0-33.686,22.648-63.497,55.076-72.496c13-3.625,27.273-3.632,40.31,0.003    c32.42,8.982,55.074,38.793,55.074,72.492c0,0.828-0.101,1.632-0.29,2.401V373.563z"/></g></g></svg>