<?xml version="1.0" encoding="iso-8859-1"?>
<!-- Generator: Adobe Illustrator 19.0.0, SVG Export Plug-In . SVG Version: 6.00 Build 0)  -->
<svg version="1.1" id="Layer_1" xmlns="http://www.w3.org/2000/svg" xmlns:xlink="http://www.w3.org/1999/xlink" x="0px" y="0px"
	 viewBox="0 0 512 512" style="enable-background:new 0 0 512 512;" xml:space="preserve">
<g>
	<g>
		<path d="M495.432,17.102H110.63c-28.537,0-55.493,5.151-75.899,14.504C12.335,41.872,0,56.271,0,72.15V439.85
			c0,15.88,12.335,30.279,34.732,40.544c20.406,9.353,47.362,14.504,75.899,14.504c28.537,0,55.493-5.151,75.899-14.504
			c22.397-10.266,34.732-24.665,34.732-40.544v-39.015h274.171c9.136,0,16.568-7.432,16.568-16.568V33.67
			C512,24.534,504.568,17.102,495.432,17.102z M205.228,439.85c0,8.796-8.844,18.068-24.122,25.366
			c-3.932-8.745-11.398-14.641-17.934-18.967c-3.69-2.445-8.666-1.433-11.11,2.259c-2.445,3.692-1.433,8.666,2.259,11.11
			c6.18,4.092,9.891,7.633,11.821,11.421c-15.184,4.784-34.092,7.826-55.511,7.826c-9.243,0-18.008-0.576-26.222-1.603
			c-0.358-14.963-8.193-24.027-15.059-30.264c-3.277-2.977-8.347-2.734-11.324,0.543s-2.734,8.347,0.543,11.324
			c4.991,4.534,8.563,9.073,9.554,15.63c-32.006-7.021-52.089-21.377-52.089-34.645V101.355c5.1,4.161,11.355,7.974,18.698,11.34
			c9,4.125,19.277,7.43,30.399,9.839c-0.146,0.233-0.279,0.468-0.436,0.701c-2.476,3.671-1.506,8.654,2.165,11.129
			c1.375,0.927,2.933,1.37,4.474,1.37c2.576,0,5.106-1.239,6.654-3.536c1.494-2.217,2.708-4.48,3.672-6.842
			c9.33,1.206,19.051,1.842,28.971,1.842c19.161,0,37.597-2.332,53.827-6.689c-0.447,0.589-0.924,1.176-1.465,1.763
			c-3.007,3.249-2.81,8.321,0.439,11.329c1.542,1.427,3.495,2.132,5.443,2.132c2.156,0,4.307-0.865,5.886-2.572
			c5.24-5.663,8.236-12.12,8.941-19.232c0.95-0.406,1.904-0.811,2.827-1.235c7.343-3.366,13.597-7.179,18.698-11.34V439.85z
			 M110.63,111.165c-55.747,0-94.597-20.561-94.597-39.015s38.85-39.015,94.597-39.015s94.597,20.561,94.597,39.015
			S166.378,111.165,110.63,111.165z M444.66,384.804H416.96c-2.901-11.491-11.79-18.797-19.719-24.047
			c-3.692-2.443-8.666-1.432-11.11,2.26c-2.443,3.692-1.432,8.665,2.26,11.11c5.695,3.77,9.342,7.132,11.396,10.677h-85.44
			c-2.901-11.491-11.79-18.797-19.719-24.047c-3.692-2.443-8.666-1.432-11.11,2.26c-2.443,3.692-1.432,8.666,2.26,11.11
			c5.695,3.77,9.342,7.132,11.397,10.677h-75.914V72.15c0-15.108-11.172-28.872-31.543-39.015h107.454
			c-0.717,1.232-1.609,2.438-2.724,3.644c-3.007,3.249-2.81,8.321,0.439,11.329c1.542,1.427,3.495,2.132,5.443,2.132
			c2.156,0,4.307-0.865,5.886-2.572c4.061-4.388,6.769-9.256,8.114-14.533h85.455c-0.717,1.232-1.609,2.438-2.724,3.644
			c-3.007,3.249-2.81,8.321,0.439,11.329c1.542,1.427,3.495,2.132,5.443,2.132c2.156,0,4.307-0.865,5.886-2.572
			c4.061-4.388,6.769-9.256,8.114-14.533h27.715V384.804z M495.967,384.267c0,0.295-0.239,0.534-0.534,0.534h-34.739V33.136h34.739
			c0.295,0,0.534,0.239,0.534,0.534V384.267z"/>
	</g>
</g>
<g>
	<g>
		<path d="M110.63,51.307c-23.422,0-50.772,5.459-50.772,20.843s27.351,20.843,50.772,20.843c23.422,0,50.772-5.459,50.772-20.843
			S134.052,51.307,110.63,51.307z M110.63,76.96c-15.457,0-26.53-2.561-31.911-4.81c5.381-2.249,16.453-4.81,31.911-4.81
			s26.53,2.561,31.911,4.81C137.16,74.399,126.088,76.96,110.63,76.96z"/>
	</g>
</g>
<g>
	<g>
		<path d="M372.718,344.437c-4.21-4.035-6.088-8.028-6.088-12.949c0-4.917,1.876-8.909,6.083-12.942
			c3.196-3.065,3.302-8.14,0.238-11.335c-3.065-3.196-8.139-3.302-11.335-0.238c-7.415,7.109-11.019,15.129-11.019,24.515
			c0,9.391,3.607,17.413,11.028,24.525c1.554,1.489,3.551,2.229,5.545,2.229c2.109,0,4.215-0.827,5.789-2.47
			C376.023,352.576,375.915,347.5,372.718,344.437z"/>
	</g>
</g>
<g>
	<g>
		<path d="M401.415,241.038c-3.548-2.65-8.571-1.92-11.22,1.628c-2.649,3.548-1.92,8.571,1.628,11.22
			c7.159,5.346,10.081,10.06,10.081,16.275c0,7.014-3.788,12.255-13.511,18.693c-3.692,2.445-4.703,7.418-2.259,11.11
			c1.541,2.328,4.092,3.59,6.691,3.59c1.52,0,3.056-0.432,4.418-1.333c9.635-6.379,20.694-15.788,20.694-32.061
			C417.937,255.113,408.508,246.332,401.415,241.038z"/>
	</g>
</g>
<g>
	<g>
		<path d="M375.356,224.101c-6.116-4.885-8.725-9.439-8.725-15.23c0-5.725,2.547-10.224,8.516-15.043
			c3.445-2.781,3.984-7.829,1.203-11.274c-2.781-3.445-7.829-3.983-11.274-1.202c-9.742,7.866-14.478,16.867-14.478,27.52
			c0,10.749,4.826,19.828,14.753,27.757c1.477,1.18,3.244,1.753,4.998,1.753c2.354,0,4.686-1.031,6.269-3.014
			C379.38,231.908,378.816,226.864,375.356,224.101z"/>
	</g>
</g>
<g>
	<g>
		<path d="M405.395,121.741c-3.32-2.93-8.385-2.615-11.315,0.704c-2.93,3.319-2.615,8.385,0.704,11.315
			c4.992,4.406,7.121,8.557,7.121,13.877c0,6.253-2.979,11.006-10.284,16.406c-3.56,2.632-4.313,7.651-1.681,11.212
			c1.571,2.127,3.996,3.252,6.452,3.252c1.656,0,3.325-0.511,4.76-1.57c7.205-5.326,16.786-14.16,16.786-29.299
			C417.937,137.663,413.835,129.192,405.395,121.741z"/>
	</g>
</g>
<g>
	<g>
		<path d="M378.673,104.046c-8.665-5.992-12.042-10.948-12.042-17.675c0-6.999,3.786-12.229,13.504-18.655
			c3.693-2.442,4.707-7.416,2.265-11.109c-2.441-3.693-7.416-4.706-11.109-2.265c-9.634,6.371-20.694,15.768-20.694,32.029
			c0,7.622,1.965,19.115,18.958,30.863c1.392,0.962,2.98,1.424,4.551,1.424c2.544,0,5.045-1.208,6.602-3.459
			C383.225,111.557,382.314,106.563,378.673,104.046z"/>
	</g>
</g>
<g>
	<g>
		<path d="M270.105,344.437c-4.21-4.035-6.088-8.028-6.088-12.949c0-4.917,1.876-8.909,6.083-12.942
			c3.196-3.065,3.302-8.14,0.238-11.335c-3.065-3.196-8.139-3.302-11.335-0.238c-7.416,7.109-11.02,15.129-11.02,24.515
			c0,9.391,3.608,17.413,11.029,24.525c1.554,1.489,3.551,2.229,5.545,2.229c2.109,0,4.215-0.827,5.789-2.47
			C273.41,352.575,273.302,347.5,270.105,344.437z"/>
	</g>
</g>
<g>
	<g>
		<path d="M298.802,241.038c-3.548-2.65-8.571-1.92-11.22,1.628c-2.649,3.548-1.92,8.571,1.628,11.22
			c7.159,5.346,10.081,10.06,10.081,16.275c0,7.014-3.788,12.255-13.511,18.693c-3.692,2.445-4.703,7.418-2.259,11.11
			c1.541,2.328,4.092,3.59,6.691,3.59c1.52,0,3.056-0.432,4.418-1.333c9.635-6.379,20.694-15.788,20.694-32.061
			C315.324,255.113,305.894,246.332,298.802,241.038z"/>
	</g>
</g>
<g>
	<g>
		<path d="M272.742,224.101c-6.116-4.885-8.725-9.439-8.725-15.23c0-5.725,2.547-10.224,8.516-15.043
			c3.445-2.781,3.984-7.829,1.202-11.274c-2.781-3.445-7.829-3.983-11.274-1.202c-9.742,7.866-14.478,16.867-14.478,27.52
			c0,10.749,4.826,19.828,14.753,27.757c1.477,1.18,3.244,1.753,4.998,1.753c2.354,0,4.686-1.031,6.269-3.014
			C276.766,231.909,276.201,226.864,272.742,224.101z"/>
	</g>
</g>
<g>
	<g>
		<path d="M302.781,121.741c-3.319-2.93-8.385-2.615-11.315,0.704s-2.615,8.385,0.704,11.315c4.992,4.406,7.121,8.557,7.121,13.877
			c0,6.254-2.979,11.006-10.284,16.405c-3.56,2.632-4.313,7.651-1.681,11.212c1.571,2.128,3.996,3.253,6.452,3.253
			c1.656,0,3.325-0.511,4.759-1.57c7.206-5.326,16.787-14.159,16.787-29.299C315.324,137.663,311.221,129.192,302.781,121.741z"/>
	</g>
</g>
<g>
	<g>
		<path d="M276.059,104.045c-8.666-5.991-12.042-10.947-12.042-17.674c0-6.999,3.786-12.23,13.504-18.655
			c3.693-2.442,4.707-7.416,2.265-11.109c-2.441-3.693-7.415-4.706-11.109-2.265c-9.634,6.371-20.694,15.768-20.694,32.029
			c0,7.623,1.966,19.116,18.959,30.863c1.391,0.962,2.979,1.423,4.551,1.423c2.544,0,5.046-1.208,6.602-3.459
			C280.612,111.556,279.701,106.562,276.059,104.045z"/>
	</g>
</g>
<g>
	<g>
		<path d="M138.649,429.93c-4.21-4.035-6.087-8.03-6.087-12.949c0-4.918,1.876-8.909,6.082-12.943
			c3.196-3.065,3.302-8.14,0.238-11.335c-3.065-3.196-8.139-3.302-11.335-0.238c-7.415,7.109-11.019,15.129-11.019,24.516
			c0,9.39,3.608,17.413,11.028,24.525c1.554,1.489,3.551,2.229,5.545,2.229c2.109,0,4.215-0.827,5.789-2.47
			C141.954,438.068,141.846,432.994,138.649,429.93z"/>
	</g>
</g>
<g>
	<g>
		<path d="M167.346,326.53c-3.548-2.649-8.571-1.92-11.22,1.628c-2.649,3.548-1.92,8.571,1.628,11.22
			c7.161,5.346,10.081,10.06,10.081,16.275c0,7.014-3.788,12.255-13.511,18.693c-3.692,2.445-4.703,7.418-2.259,11.11
			c1.542,2.33,4.092,3.591,6.691,3.591c1.52,0,3.056-0.432,4.418-1.333c9.635-6.379,20.694-15.788,20.694-32.061
			C183.869,340.605,174.439,331.825,167.346,326.53z"/>
	</g>
</g>
<g>
	<g>
		<path d="M141.287,309.594c-6.116-4.885-8.725-9.439-8.725-15.23c0-5.725,2.546-10.224,8.515-15.043
			c3.445-2.781,3.984-7.829,1.203-11.274c-2.781-3.445-7.829-3.983-11.273-1.202c-9.742,7.865-14.477,16.866-14.477,27.518
			c0,10.749,4.826,19.829,14.753,27.757c1.477,1.18,3.244,1.753,4.998,1.753c2.354,0,4.686-1.031,6.269-3.014
			C145.311,317.402,144.746,312.357,141.287,309.594z"/>
	</g>
</g>
<g>
	<g>
		<path d="M171.326,207.234c-3.319-2.93-8.385-2.616-11.315,0.703c-2.931,3.319-2.616,8.385,0.703,11.315
			c4.991,4.407,7.121,8.558,7.121,13.877c0,6.253-2.979,11.006-10.284,16.405c-3.56,2.632-4.313,7.651-1.681,11.212
			c1.572,2.127,3.997,3.252,6.453,3.252c1.656,0,3.325-0.511,4.76-1.57c7.205-5.326,16.786-14.16,16.786-29.298
			C183.869,223.156,179.765,214.686,171.326,207.234z"/>
	</g>
</g>
<g>
	<g>
		<path d="M144.603,189.537c-8.665-5.991-12.042-10.947-12.042-17.674c0.001-6.999,3.787-12.229,13.504-18.655
			c3.693-2.442,4.707-7.416,2.265-11.109c-2.442-3.693-7.416-4.707-11.109-2.265c-9.635,6.372-20.694,15.769-20.694,32.029
			c0,7.623,1.966,19.116,18.959,30.863c1.391,0.962,2.979,1.423,4.551,1.423c2.544,0,5.046-1.208,6.601-3.459
			C149.157,197.048,148.245,192.055,144.603,189.537z"/>
	</g>
</g>
<g>
	<g>
		<path d="M51.652,430.866c-3.183-4.185-4.602-8.467-4.602-13.884c0-5.415,1.418-9.695,4.597-13.878
			c2.679-3.525,1.993-8.554-1.532-11.233c-3.525-2.68-8.554-1.995-11.234,1.532c-5.293,6.964-7.866,14.677-7.866,23.581
			c0,8.907,2.575,16.623,7.873,23.589c1.578,2.074,3.968,3.164,6.387,3.164c1.692,0,3.397-0.533,4.847-1.637
			C53.648,439.42,54.332,434.39,51.652,430.866z"/>
	</g>
</g>
<g>
	<g>
		<path d="M72.468,327.353c-3.093-3.168-8.168-3.229-11.337-0.136c-3.168,3.093-3.229,8.169-0.136,11.337
			c5.266,5.395,7.414,10.348,7.414,17.099c0,8.719-3.932,14.078-9.838,19.443c-3.277,2.977-3.52,8.048-0.543,11.324
			c1.582,1.741,3.755,2.626,5.937,2.626c1.923,0,3.852-0.688,5.388-2.083c7.025-6.382,15.09-15.71,15.09-31.311
			C84.443,341.282,77.608,332.618,72.468,327.353z"/>
	</g>
</g>
<g>
	<g>
		<path d="M53.51,310.454c-4.528-4.962-6.459-9.774-6.459-16.089c0-6.249,1.888-11.006,6.313-15.908
			c2.967-3.287,2.709-8.356-0.578-11.323c-3.287-2.967-8.356-2.708-11.323,0.578c-7.029,7.785-10.445,16.504-10.445,26.652
			c0,10.244,3.484,19.042,10.649,26.897c1.582,1.734,3.749,2.613,5.924,2.613c1.929,0,3.864-0.693,5.401-2.095
			C56.262,318.794,56.494,313.723,53.51,310.454z"/>
	</g>
</g>
<g>
	<g>
		<path d="M75.444,208.139c-2.82-3.414-7.872-3.897-11.286-1.078c-3.414,2.819-3.897,7.871-1.08,11.285
			c3.688,4.467,5.332,9.026,5.332,14.784c0,6.791-2.189,11.78-7.556,17.224c-3.108,3.152-3.073,8.228,0.08,11.337
			c1.562,1.54,3.595,2.308,5.628,2.308c2.07,0,4.141-0.797,5.709-2.388c5.225-5.298,12.173-14.017,12.173-28.481
			C84.443,223.65,81.499,215.476,75.444,208.139z"/>
	</g>
</g>
<g>
	<g>
		<path d="M47.051,171.863c0-8.701,3.93-14.051,9.833-19.406c3.278-2.975,3.525-8.046,0.549-11.324
			c-2.975-3.278-8.044-3.526-11.324-0.549c-7.026,6.376-15.092,15.692-15.092,31.279c0,15.067,7.373,23.993,13.797,30.085
			c1.551,1.471,3.535,2.2,5.515,2.2c2.123,0,4.242-0.838,5.818-2.5c3.045-3.211,2.912-8.285-0.3-11.332
			C50.567,185.307,47.051,180.253,47.051,171.863z"/>
	</g>
</g>
<g>
</g>
<g>
</g>
<g>
</g>
<g>
</g>
<g>
</g>
<g>
</g>
<g>
</g>
<g>
</g>
<g>
</g>
<g>
</g>
<g>
</g>
<g>
</g>
<g>
</g>
<g>
</g>
<g>
</g>
</svg>
