<svg version="1.1" id="Uploaded to svgrepo.com" xmlns="http://www.w3.org/2000/svg" xmlns:xlink="http://www.w3.org/1999/xlink" x="0px" y="0px"
	 width="32px" height="32px" viewBox="0 0 32 32" style="enable-background:new 0 0 32 32;" xml:space="preserve">
<style type="text/css">
	.feather_een{fill:#111918;}
</style>
<path class="feather_een" d="M25,2H7C5.343,2,4,3.343,4,5v22c0,1.657,1.343,3,3,3h18c1.657,0,3-1.343,3-3V5C28,3.343,26.657,2,25,2z
	 M7,3h18c1.103,0,2,0.897,2,2v6H5V5C5,3.897,5.897,3,7,3z M27,12v3H5v-3H27z M25,29H7c-1.103,0-2-0.897-2-2V16h22v11
	C27,28.103,26.103,29,25,29z M7,10h7c0.552,0,1-0.448,1-1V5c0-0.552-0.448-1-1-1H7C6.448,4,6,4.448,6,5v4C6,9.552,6.448,10,7,10z
	 M7,5h7v4H7V5z M18,10h7c0.552,0,1-0.448,1-1V5c0-0.552-0.448-1-1-1h-7c-0.552,0-1,0.448-1,1v4C17,9.552,17.448,10,18,10z M18,5h7v4
	h-7V5z"/>
</svg>