<?xml version="1.0" encoding="iso-8859-1"?>
<!-- Generator: Adobe Illustrator 19.0.0, SVG Export Plug-In . SVG Version: 6.00 Build 0)  -->
<svg version="1.1" id="Layer_1" xmlns="http://www.w3.org/2000/svg" xmlns:xlink="http://www.w3.org/1999/xlink" x="0px" y="0px"
	 viewBox="0 0 490 490" style="enable-background:new 0 0 490 490;" xml:space="preserve">
<g>
	<g>
		<g>
			<path d="M470,220H210v-20c0-11.028-8.972-20-20-20H80V95c0-11.028-8.972-20-20-20H20C8.972,75,0,83.972,0,95v310
				c0,5.523,4.477,10,10,10h40c5.523,0,10-4.477,10-10v-55h370v55c0,5.523,4.477,10,10,10h40c5.523,0,10-4.477,10-10V240
				C490,228.972,481.028,220,470,220z M80,200h110v20H80V200z M40,395H20v-45h20V395z M470,395h-20v-45h20V395z M470,330H20v-10h310
				v-20H20v-10h450V330z M470,270H20V95h40v125H35v20h435V270z"/>
			<rect x="345" y="300" width="20" height="20"/>
			<rect x="380" y="300" width="20" height="20"/>
		</g>
	</g>
</g>
<g>
</g>
<g>
</g>
<g>
</g>
<g>
</g>
<g>
</g>
<g>
</g>
<g>
</g>
<g>
</g>
<g>
</g>
<g>
</g>
<g>
</g>
<g>
</g>
<g>
</g>
<g>
</g>
<g>
</g>
</svg>
